# xmcd
#
# Track frame offsets:
#	150
#	12442
#	30305
#	46822
#	63867
#	76175
#	92952
#	107255
#	128235
#	143298
#	161285
#	183379
#	197223
#	211268
#	224033
#	235334
#	245196
#
# Disc length: 3494 seconds
#
# Revision: 1
# Processed by: cddbd v1.5.2PL0 Copyright (c) Steve Scherf et al.
# Submitted via: audiograbber 1.83.01
#
DISCID=e10da411
DTITLE=Telly Savalas - Some Broken Harts
DYEAR=1900
DGENRE=
TTITLE0=Some brocken hearts never mind
TTITLE1=Love is such a sweet surprise
TTITLE2=Don´t turn your back on love
TTITLE3=Mem´ries
TTITLE4=Oh, what a night for love
TTITLE5=You´re the lost thing I´ve found
TTITLE6=For all the right reasons
TTITLE7=Honey
TTITLE8=Look what you have done to me
TTITLE9=You´re always there
TTITLE10=My song for you
TTITLE11=You´re lost that loving feeling
TTITLE12=If
TTITLE13=Lovin´ Understandin´ Man
TTITLE14=I walk the line
TTITLE15=Try to remember
TTITLE16=Goodbey Madame
EXTD=
EXTT0=
EXTT1=
EXTT2=
EXTT3=
EXTT4=
EXTT5=
EXTT6=
EXTT7=
EXTT8=
EXTT9=
EXTT10=
EXTT11=
EXTT12=
EXTT13=
EXTT14=
EXTT15=
EXTT16=
PLAYORDER=
